<mxfile host="app.diagrams.net" modified="2024-01-08T02:55:39.755Z" agent="Mozilla/5.0 (Windows NT 10.0; Win64; x64) AppleWebKit/537.36 (KHTML, like Gecko) Chrome/120.0.0.0 Safari/537.36 Edg/120.0.0.0" version="22.1.16" etag="PbPcXQseYjNKuCQe9Ncg" type="github">
  <diagram name="Page-1" id="Mfq-cFtSlNQOb0LYSINd">
    <mxGraphModel>
      <root>
        <mxCell id="0" />
        <mxCell id="1" parent="0" />
      </root>
    </mxGraphModel>
  </diagram>
</mxfile>
